# Blender v2.79 (sub 0) OBJ File: ''
# www.blender.org
mtllib figura1.mtl
o Icosphere
v 0.000000 -1.000000 0.000000
v 0.723600 -0.447215 0.525720
v -0.276385 -0.447215 0.850640
v -0.894425 -0.447215 0.000000
v -0.276385 -0.447215 -0.850640
v 0.723600 -0.447215 -0.525720
v 0.276385 0.447215 0.850640
v -0.723600 0.447215 0.525720
v -0.723600 0.447215 -0.525720
v 0.276385 0.447215 -0.850640
v 0.894425 0.447215 0.000000
v 0.000000 1.000000 0.000000
vn 0.1876 -0.7947 0.5774
vn 0.6071 -0.7947 0.0000
vn -0.4911 -0.7947 0.3568
vn -0.4911 -0.7947 -0.3568
vn 0.1876 -0.7947 -0.5774
vn 0.9822 -0.1876 0.0000
vn 0.3035 -0.1876 0.9342
vn -0.7946 -0.1876 0.5774
vn -0.7946 -0.1876 -0.5774
vn 0.3035 -0.1876 -0.9342
vn 0.7946 0.1876 0.5774
vn -0.3035 0.1876 0.9342
vn -0.9822 0.1876 0.0000
vn -0.3035 0.1876 -0.9342
vn 0.7946 0.1876 -0.5774
vn 0.4911 0.7947 0.3568
vn -0.1876 0.7947 0.5774
vn -0.6071 0.7947 0.0000
vn -0.1876 0.7947 -0.5774
vn 0.4911 0.7947 -0.3568
g Icosphere_Icosphere_None
usemtl None
s off
f 1/1/1 2/1/1 3/1/1
f 2/1/2 1/1/2 6/1/2
f 1/1/3 3/1/3 4/1/3
f 1/1/4 4/1/4 5/1/4
f 1/1/5 5/1/5 6/1/5
f 2/1/6 6/1/6 11/1/6
f 3/1/7 2/1/7 7/1/7
f 4/1/8 3/1/8 8/1/8
f 5/1/9 4/1/9 9/1/9
f 6/1/10 5/1/10 10/1/10
f 2/1/11 11/1/11 7/1/11
f 3/1/12 7/1/12 8/1/12
f 4/1/13 8/1/13 9/1/13
f 5/1/14 9/1/14 10/1/14
f 6/1/15 10/1/15 11/1/15
f 7/1/16 11/1/16 12/1/16
f 8/1/17 7/1/17 12/1/17
f 9/1/18 8/1/18 12/1/18
f 10/1/19 9/1/19 12/1/19
f 11/1/20 10/1/20 12/1/20
